<svg id="Layer_1" xmlns="http://www.w3.org/2000/svg" xmlns:xlink="http://www.w3.org/1999/xlink" viewBox="0 0 500 500"><style>.st0,.st1{clip-path:url(#SVGID_2_);fill:#183258}.st1{fill:#fff}</style><defs><circle id="SVGID_1_" cx="250" cy="250" r="236"/></defs><clipPath id="SVGID_2_"><use xlink:href="#SVGID_1_" overflow="visible"/></clipPath><path id="Mountain_1_" class="st0" d="M889.9 471.1c-9.3-2.9-23.2-7-40.6-11.6-8.7-2.3-18.6-4.6-29-7.5-10.4-2.9-22-5.2-34.2-8.1-12.2-2.9-25.5-5.2-39.4-8.7-13.9-2.3-28.4-5.2-43.5-8.1l-76.6-98-43.5 21.5-116.6-111.5-31.9 23.2L253 97l-92.8 106.7-53.4-36-185 183.9h-.6l-43.5-21.5-76.6 97.5c-14.5 2.9-29 5.2-42.3 8.1-13.9 2.9-26.7 5.8-39.4 8.7-12.2 2.9-23.8 5.2-34.2 8.1s-20.3 5.2-29 7.5c-17.4 4.6-31.3 8.7-40.6 11.6C-393.8 474-447 515-447 515H926s-26.8-41-36.1-43.9z"/><path id="Snow_Caps_1_" class="st1" d="M226.3 250.1l31.9-22.6 34.8 76 9.9-50.5 18.6 36.5 14.5-31.3 95.1 16.2-176.4-162.3-28.4 138zM39.5 249l32.5-7-31.3 43.5L142.2 202l-34.8-22-67.9 69zm425.2 1.1l-4.1 21.5 12.2-1.7 40 24.4-48.1-44.2z"/><use xlink:href="#SVGID_1_" overflow="visible" fill="none" stroke="#183258" stroke-width="10" stroke-miterlimit="10"/></svg>