<?xml version="1.0" standalone="no"?>
<!DOCTYPE svg PUBLIC "-//W3C//DTD SVG 20010904//EN"
 "http://www.w3.org/TR/2001/REC-SVG-20010904/DTD/svg10.dtd">
<svg version="1.0" xmlns="http://www.w3.org/2000/svg"
 width="512.000000pt" height="512.000000pt" viewBox="0 0 512.000000 512.000000"
 preserveAspectRatio="xMidYMid meet">
<metadata>
Created by potrace 1.11, written by Peter Selinger 2001-2013
</metadata>
<g transform="translate(0.000000,512.000000) scale(0.100000,-0.100000)"
fill="#000000" stroke="none">
<path d="M2364 5019 c-580 -44 -1134 -300 -1548 -715 -963 -962 -963 -2526 0
-3488 962 -963 2526 -963 3488 0 963 962 963 2526 0 3488 -511 512 -1215 771
-1940 715z m476 -110 c1011 -120 1838 -884 2039 -1884 33 -166 62 -485 44
-485 -5 0 -38 29 -73 65 -35 36 -67 65 -71 65 -3 0 -78 -52 -165 -115 -87 -63
-161 -115 -164 -115 -3 0 -422 380 -932 845 l-927 844 -472 -542 c-259 -298
-477 -541 -484 -541 -7 1 -131 81 -274 178 -143 97 -264 176 -268 176 -5 0
-206 -198 -448 -440 -242 -242 -444 -440 -449 -440 -19 0 11 336 45 505 243
1207 1377 2029 2599 1884z m724 -1813 c465 -429 844 -781 842 -783 -2 -2 -218
33 -481 77 -262 45 -481 78 -485 74 -4 -5 -38 -75 -75 -156 -38 -82 -71 -148
-74 -148 -4 0 -47 81 -96 180 -61 122 -91 174 -95 163 -4 -10 -26 -123 -51
-250 -24 -128 -46 -233 -49 -233 -3 0 -84 171 -179 380 -96 209 -177 380 -181
380 -3 0 -76 -49 -161 -109 -84 -60 -155 -106 -157 -102 -2 7 274 1363 283
1389 6 17 -72 87 959 -862z m-2117 -43 c3 -7 -820 -692 -1002 -835 -37 -29
-39 -32 130 202 77 107 144 200 148 206 6 10 -129 -15 -293 -53 -32 -7 -10 17
379 408 l294 297 171 -108 c94 -60 172 -112 173 -117z m3473 -680 c0 -50 -12
-60 -47 -38 -20 14 -38 16 -89 10 -48 -5 -64 -4 -64 6 0 16 29 179 35 197 3 9
34 -13 85 -60 75 -69 80 -75 80 -115z"/>
</g>
</svg>
