<svg version="1" xmlns="http://www.w3.org/2000/svg" width="682.667" height="682.667" viewBox="0 0 512.000000 512.000000"><path d="M236.4 10.1c-58 4.4-113.4 30-154.8 71.5-96.3 96.2-96.3 252.6 0 348.8 96.2 96.3 252.6 96.3 348.8 0 96.3-96.2 96.3-252.6 0-348.8-51.1-51.2-121.5-77.1-194-71.5zm47.6 11c101.1 12 183.8 88.4 203.9 188.4 3.3 16.6 6.2 48.5 4.4 48.5-.5 0-3.8-2.9-7.3-6.5s-6.7-6.5-7.1-6.5c-.3 0-7.8 5.2-16.5 11.5S445.3 268 445 268c-.3 0-42.2-38-93.2-84.5l-92.7-84.4-47.2 54.2c-25.9 29.8-47.7 54.1-48.4 54.1-.7-.1-13.1-8.1-27.4-17.8-14.3-9.7-26.4-17.6-26.8-17.6-.5 0-20.6 19.8-44.8 44-24.2 24.2-44.4 44-44.9 44-1.9 0 1.1-33.6 4.5-50.5C48.4 88.8 161.8 6.6 284 21.1zm72.4 181.3c46.5 42.9 84.4 78.1 84.2 78.3-.2.2-21.8-3.3-48.1-7.7-26.2-4.5-48.1-7.8-48.5-7.4-.4.5-3.8 7.5-7.5 15.6-3.8 8.2-7.1 14.8-7.4 14.8-.4 0-4.7-8.1-9.6-18-6.1-12.2-9.1-17.4-9.5-16.3-.4 1-2.6 12.3-5.1 25-2.4 12.8-4.6 23.3-4.9 23.3-.3 0-8.4-17.1-17.9-38-9.6-20.9-17.7-38-18.1-38-.3 0-7.6 4.9-16.1 10.9-8.4 6-15.5 10.6-15.7 10.2-.2-.7 27.4-136.3 28.3-138.9.6-1.7-7.2-8.7 95.9 86.2zm-211.7 4.3c.3.7-82 69.2-100.2 83.5-3.7 2.9-3.9 3.2 13-20.2 7.7-10.7 14.4-20 14.8-20.6.6-1-12.9 1.5-29.3 5.3-3.2.7-1-1.7 37.9-40.8l29.4-29.7 17.1 10.8c9.4 6 17.2 11.2 17.3 11.7zm347.3 68c0 5-1.2 6-4.7 3.8-2-1.4-3.8-1.6-8.9-1-4.8.5-6.4.4-6.4-.6 0-1.6 2.9-17.9 3.5-19.7.3-.9 3.4 1.3 8.5 6 7.5 6.9 8 7.5 8 11.5z"/></svg>