<svg id="Layer_1" data-name="Layer 1" xmlns="http://www.w3.org/2000/svg" viewBox="0 0 32 32"><defs><style>.cls-1{fill:#173258}</style></defs><title>instagram</title><path class="cls-1" d="M19.47 11.16A4.18 4.18 0 0 0 18 11h-4.21a4.69 4.69 0 0 0-1.47.21 2.07 2.07 0 0 0-1.16 1.16 4.18 4.18 0 0 0-.16 1.42V18a4.69 4.69 0 0 0 .21 1.47 2.07 2.07 0 0 0 1.16 1.16 4.18 4.18 0 0 0 1.47.21H18a4.69 4.69 0 0 0 1.47-.21 1.79 1.79 0 0 0 1.16-1.16 4.18 4.18 0 0 0 .21-1.47v-4.21a4.69 4.69 0 0 0-.21-1.47 2.07 2.07 0 0 0-1.16-1.16zm-.73 6.52a4.13 4.13 0 0 1-1.16 1.16 2.51 2.51 0 0 1-1.58.42 2.93 2.93 0 0 1-1.58-.42 4 4 0 0 1-1.16-1.16 2.56 2.56 0 0 1-.42-1.58 2.75 2.75 0 0 1 .42-1.57 3.88 3.88 0 0 1 1.16-1.16 3.18 3.18 0 0 1 3.16 0 4 4 0 0 1 1.16 1.16 2.55 2.55 0 0 1 .42 1.57 2.76 2.76 0 0 1-.42 1.58zm.94-4.42c-.21.11-.31.21-.52.21a.8.8 0 0 1-.53-.21c-.1-.21-.21-.31-.21-.52a.85.85 0 0 1 .21-.53c.21-.1.32-.21.53-.21a.75.75 0 0 1 .52.21c.11.21.22.32.22.53s0 .42-.22.52z"/><path class="cls-1" d="M17.37 14.63A1.85 1.85 0 0 0 16 14a1.7 1.7 0 0 0-1.37.63A1.85 1.85 0 0 0 14 16a1.7 1.7 0 0 0 .63 1.37 1.8 1.8 0 0 0 2.74 0A1.85 1.85 0 0 0 18 16a1.7 1.7 0 0 0-.63-1.37z"/><path class="cls-1" d="M16 0a16 16 0 1 0 16 16A16 16 0 0 0 16 0zm5.9 16v2.53a5.09 5.09 0 0 1-.22 1.36 4.24 4.24 0 0 1-.68 1.16 4.33 4.33 0 0 1-1.16.74 5.55 5.55 0 0 1-1.37.21h-5.1a5.12 5.12 0 0 1-1.37-.21 2.78 2.78 0 0 1-1.16-.74 4.24 4.24 0 0 1-.73-1.16 5.1 5.1 0 0 1-.21-1.36v-5.06a5.1 5.1 0 0 1 .21-1.36 4.24 4.24 0 0 1 .73-1.11 4.33 4.33 0 0 1 1.16-.79 5.55 5.55 0 0 1 1.37-.21h5.05a5.12 5.12 0 0 1 1.37.21A4.33 4.33 0 0 1 21 11a4.24 4.24 0 0 1 .73 1.16 5.09 5.09 0 0 1 .22 1.36z"/></svg>