<svg id="Layer_1" data-name="Layer 1" xmlns="http://www.w3.org/2000/svg" viewBox="0 0 15.64 11.95"><defs><style>.cls-1{fill:#163258}</style></defs><title>ldquo</title><path class="cls-1" d="M3.47 12A3.3 3.3 0 0 1 1 11a4 4 0 0 1-1-3 8.82 8.82 0 0 1 1.28-4.65A9.75 9.75 0 0 1 4.56 0l1.32.68a9.41 9.41 0 0 0-1.64 2.1 6.29 6.29 0 0 0-.91 2.92 3.65 3.65 0 0 1 2.28.91 2.7 2.7 0 0 1 .91 2.1 3.21 3.21 0 0 1-.89 2.35 2.94 2.94 0 0 1-2.16.94zm9.12 0a3.3 3.3 0 0 1-2.47-1 4 4 0 0 1-1-3 8.82 8.82 0 0 1 1.28-4.65A9.75 9.75 0 0 1 13.68 0L15 .68a9.41 9.41 0 0 0-1.64 2.1 6.29 6.29 0 0 0-.91 2.92 3.65 3.65 0 0 1 2.28.91 2.7 2.7 0 0 1 .91 2.1 3.21 3.21 0 0 1-.89 2.35 2.94 2.94 0 0 1-2.16.94z"/></svg>