<svg id="Layer_1" data-name="Layer 1" xmlns="http://www.w3.org/2000/svg" viewBox="0 0 32 32"><defs><style>.cls-1{fill:#173258}</style></defs><title>linkedin</title><path class="cls-1" d="M16 0a16 16 0 1 0 16 16A16 16 0 0 0 16 0zm-3.37 22h-2.42v-8h2.42zm-.1-9.58a1.36 1.36 0 0 1-1.06.42A1.44 1.44 0 0 1 10 11.37a1.32 1.32 0 0 1 .42-1 1.35 1.35 0 0 1 1.05-.43A1.45 1.45 0 0 1 13 11.37a1.37 1.37 0 0 1-.47 1.05zM21.9 22h-2.43v-3.9a3.93 3.93 0 0 0-.21-1.36A1.14 1.14 0 0 0 18.1 16a1.2 1.2 0 0 0-1.15.63 2.65 2.65 0 0 0-.32 1.37v4h-2.42v-8h2.42v1.05a2.18 2.18 0 0 1 .84-.84 2.4 2.4 0 0 1 1.53-.42 2.57 2.57 0 0 1 2.42 1.05 6.09 6.09 0 0 1 .52 2.74V22z"/></svg>