<svg id="Layer_1" xmlns="http://www.w3.org/2000/svg" viewBox="0 0 224.7 91.3"><style>.st0{fill:url(#Mountain_2_)}.st1{fill:#fff}.st2{fill:#225e2f}</style><g id="Logo_Icon_1_"><linearGradient id="Mountain_2_" gradientUnits="userSpaceOnUse" y1="32.642" x2="224.695" y2="32.642"><stop offset=".002" stop-color="#0d1026"/><stop offset=".15" stop-color="#131932"/><stop offset=".453" stop-color="#1b2d4e"/><stop offset=".88" stop-color="#144881"/><stop offset="1" stop-color="#054f91"/></linearGradient><path id="Mountain_1_" class="st0" d="M222.2 64.5c-1.6-.5-4-1.2-7-2-1.5-.4-3.2-.8-5-1.3-1.8-.5-3.8-.9-5.9-1.4-2.1-.5-4.4-.9-6.8-1.5-2.4-.4-4.9-.9-7.5-1.4L176.8 40l-7.5 3.7-20.1-19.2-5.5 4L112.4 0l-16 18.4-9.2-6.2-31.9 31.7h-.1l-7.5-3.7L34.5 57c-2.5.5-5 .9-7.3 1.4-2.4.5-4.6 1-6.8 1.5-2.1.5-4.1.9-5.9 1.4-1.8.5-3.5.9-5 1.3-3 .8-5.4 1.5-7 2-1.6.4-2.5.7-2.5.7s3.5-.5 9.6-1.4c3.1-.5 6.8-1.1 11.1-1.7 1.1-.2 2.2-.4 3.3-.5 1.1-.1 2.3-.3 3.5-.4 2.4-.3 4.9-.6 7.6-.9 5.3-.6 11-1.5 17-1.9 3-.3 6.1-.5 9.3-.8 3.2-.3 6.4-.7 9.7-.8 3.3-.2 6.6-.4 10-.6l5.1-.3c1.7-.1 3.4-.2 5.2-.2l10.5-.3c1.5 0 2.9-.1 4.4-.1h12.2c1.5 0 2.9.1 4.4.1l10.5.3c1.7 0 3.5.1 5.2.2l5.1.3c3.4.2 6.7.4 10 .6 3.3.1 6.5.5 9.7.8 3.2.3 6.3.6 9.3.8 6 .4 11.7 1.3 17 1.9 2.6.3 5.2.6 7.6.9 1.2.1 2.4.3 3.5.4 1.1.1 2.2.3 3.3.5 4.3.7 8 1.2 11.1 1.7 6.1.9 9.6 1.4 9.6 1.4s-1-.3-2.6-.8z"/><path class="st1" d="M107.8 26.4l5.5-3.9 6 13.1 1.7-8.7 3.2 6.3 2.5-5.4 16.4 2.8-30.4-28zm-32.2-.2l5.6-1.2-5.4 7.5 17.5-14.4-6-3.8zm73.3.2l-.7 3.7 2.1-.3 6.9 4.2z" id="Snow_Caps_1_"/></g><path class="st2" d="M28.5 89.5h-.8l-.7-2h-2l-.7 2h-.7l2.1-5.8h.7l2.1 5.8zm-1.7-2.6l-.8-2.3-.8 2.3h1.6zm9.2 2.6h-.5l-3.3-5v4.9h-.6V84c0-.1 0-.2-.1-.3v-.1h1l2.9 4.4v-4.4h.6v5.9zm5.7 0h-1.9v-5.4c0-.1 0-.2-.1-.3v-.1h1.5c2.1 0 3.2 1 3.2 2.9 0 .9-.2 1.6-.7 2.1s-1.2.8-2 .8zm-1.2-.6h1.1c.7 0 1.2-.2 1.5-.7s.5-1 .5-1.7c0-.8-.2-1.4-.6-1.8-.4-.4-1-.6-1.9-.6h-.6v4.8zm10.7.6h-3.5v-5.4c0-.1 0-.2-.1-.3v-.1h3.6v.6h-2.7v2h2.1v.5h-2.1V89h2.7v.5zm7.5 0h-.9l-1.5-2.6h-1v2.6h-.8v-5.4c0-.1 0-.2-.1-.3v-.1h1.8c1.3 0 2 .5 2 1.6 0 .3-.1.6-.3.9-.2.3-.5.5-.8.6l1.6 2.7zm-3.5-3.2h.7c.5 0 .8-.1 1.1-.2.3-.2.4-.5.4-.9 0-.3-.1-.6-.4-.8-.2-.2-.5-.3-.9-.3h-.9v2.2zm6 2.8l.3-.7c.2.2.4.3.7.4.3.1.5.1.7.1.3 0 .6-.1.8-.3.2-.2.4-.4.4-.8 0-.3-.1-.5-.3-.7s-.4-.3-.7-.5c-.3-.1-.5-.2-.8-.4-.3-.1-.5-.3-.7-.5-.2-.2-.3-.5-.3-.9 0-.5.2-.8.6-1.1.4-.3.8-.4 1.3-.4s1 .1 1.5.4l-.4.5c-.4-.3-.8-.4-1.2-.4-.3 0-.6.1-.8.2s-.3.4-.3.7c0 .2.1.3.2.4s.2.2.4.3c.2.1.3.2.5.3l.6.3c.2.1.4.2.5.3.2.1.3.3.4.5.1.2.2.4.2.7 0 .5-.2 1-.6 1.3-.4.3-.9.4-1.5.4-.4.3-1 .2-1.5-.1zm10.4.4h-3.5v-5.4c0-.1 0-.2-.1-.3v-.1h3.6v.6h-2.7v2H71v.5h-2.1V89h2.7v.5zm7.7 0h-.5l-3.3-5v4.9h-.6V84c0-.1 0-.2-.1-.3v-.1h1l2.9 4.4v-4.4h.6v5.9zm13.3 0h-.8v-4.8L90 89.5h-.5l-1.8-4.8v4.8h-.6v-5.3l-.1-.5h1.1l1.7 4.6 1.7-4.6h1v5.8zm6 0c-.4 0-.8-.1-1.2-.2-.3-.2-.6-.4-.8-.7s-.4-.6-.5-1-.1-.7-.1-1.1c0-.9.2-1.6.7-2.1.5-.6 1.1-.9 2-.9.8 0 1.5.3 1.9.9.5.6.7 1.3.7 2.1 0 .6-.1 1.1-.3 1.5-.2.4-.5.8-.9 1.1s-.9.4-1.5.4zm1.8-3c0-.3 0-.6-.1-.9-.1-.3-.2-.5-.3-.8-.1-.2-.3-.4-.6-.6-.2-.1-.5-.2-.9-.2-.3 0-.6.1-.9.2-.2.1-.4.3-.6.6-.1.2-.2.5-.3.8s-.1.6-.1.9 0 .6.1.9.2.5.3.8c.1.2.3.4.6.6.2.1.5.2.9.2.3 0 .6-.1.9-.2.2-.1.4-.3.6-.6s.2-.5.3-.8c.1-.3.1-.6.1-.9zm8.4 3h-.9l-1.5-2.6h-1v2.6h-.8v-5.4c0-.1 0-.2-.1-.3v-.1h1.8c1.3 0 2 .5 2 1.6 0 .3-.1.6-.3.9-.2.3-.5.5-.8.6l1.6 2.7zm-3.5-3.2h.7c.5 0 .8-.1 1.1-.2.3-.2.4-.5.4-.9 0-.3-.1-.6-.4-.8-.2-.2-.5-.3-.9-.3h-.9v2.2zm6 2.8l.3-.7c.2.2.4.3.7.4.3.1.5.1.7.1.3 0 .6-.1.8-.3s.4-.4.4-.8c0-.3-.1-.5-.3-.7-.2-.2-.4-.3-.7-.5-.3-.1-.5-.2-.8-.4-.3-.1-.5-.3-.7-.5-.2-.2-.3-.5-.3-.9 0-.5.2-.8.6-1.1.4-.3.8-.4 1.3-.4s1 .1 1.5.4l-.4.5c-.4-.3-.8-.4-1.2-.4-.3 0-.6.1-.8.2s-.3.4-.3.7c0 .2.1.3.2.4s.2.2.4.3c.2.1.3.2.5.3l.6.3c.2.1.4.2.5.3.2.1.3.3.4.5.1.2.2.4.2.7 0 .5-.2 1-.6 1.3-.4.3-.9.4-1.5.4-.4.3-1 .2-1.5-.1zm10.4.4h-3.5v-5.4c0-.1 0-.2-.1-.3v-.1h3.6v.6H119v2h2.1v.5H119V89h2.7v.5zm12.2 0h-.5c-.4 0-.8-.2-1.2-.7-.5.5-1 .8-1.6.8-.4 0-.8-.2-1.1-.5s-.5-.7-.5-1.1c0-.6.4-1.2 1.2-1.7-.3-.4-.5-.8-.5-1.3 0-.3.1-.6.4-.8s.5-.3.9-.3c.3 0 .6.1.8.3s.3.4.3.7c0 .5-.3.9-1 1.4l1.2 1.5c.2-.4.3-.8.4-1.2l.5.1c-.1.6-.2 1-.5 1.5.1.1.1.2.2.2.1.1.1.2.2.2l.1.1c.1 0 .1.1.2.1h.6v.7zm-2.1-1.1c-.4-.5-.9-1-1.4-1.7-.5.4-.8.8-.8 1.2 0 .3.1.5.3.7s.5.3.8.3c.3 0 .7-.2 1.1-.5zm-1.1-2.5c.5-.3.7-.6.7-1 0-.2 0-.3-.2-.4-.1-.1-.2-.2-.4-.2s-.3.1-.4.2-.2.3-.2.4c.1.4.2.7.5 1zm13.7 3.6h-3.3v-5.4c0-.1 0-.2-.1-.3v-.1h.9V89h2.5v.5zm4 0h-.8v-5.4c0-.1 0-.2-.1-.3v-.1h.9v5.8zm8.1 0h-.5l-3.3-5v4.9h-.6V84c0-.1 0-.2-.1-.3v-.1h1l2.9 4.4v-4.4h.6v5.9zm5.8 0h-.8v-5.3h-1.8v-.6h4.3v.6h-1.8v5.3zm9.3 0h-.8v-2.8H168v2.8h-.8v-5.4c0-.1 0-.2-.1-.3v-.1h.9v2.5h2.9v-2.5h.8v5.8zm6.1 0c-.4 0-.8-.1-1.2-.2-.3-.2-.6-.4-.8-.7-.2-.3-.4-.6-.5-1-.1-.4-.2-.7-.2-1.1 0-.9.2-1.6.7-2.1.5-.6 1.1-.9 2-.9.8 0 1.5.3 1.9.9.5.6.7 1.3.7 2.1 0 .6-.1 1.1-.3 1.5-.2.4-.5.8-.9 1.1s-.9.4-1.4.4zm1.8-3c0-.3 0-.6-.1-.9-.1-.3-.2-.5-.3-.8-.1-.2-.3-.4-.6-.6s-.5-.2-.9-.2-.6.1-.9.2-.4.3-.6.6c-.1.2-.2.5-.3.8s-.1.6-.1.9 0 .6.1.9.2.5.3.8c.1.2.3.4.6.6s.5.2.9.2.6-.1.9-.2.4-.3.6-.6c.1-.2.2-.5.3-.8s.1-.6.1-.9zm8.3 3h-.8l-1.5-2.6h-1v2.6h-.8v-5.4c0-.1 0-.2-.1-.3v-.1h1.8c1.3 0 2 .5 2 1.6 0 .3-.1.6-.3.9-.2.3-.5.5-.8.6l1.5 2.7zm-3.4-3.2h.7c.5 0 .8-.1 1.1-.2.3-.2.4-.5.4-.9 0-.3-.1-.6-.4-.8-.2-.2-.5-.3-.9-.3h-.9v2.2zm5.9 2.8l.3-.7c.2.2.4.3.7.4s.5.1.7.1c.3 0 .6-.1.8-.3s.4-.4.4-.8c0-.3-.1-.5-.3-.7-.2-.2-.4-.3-.7-.5-.3-.1-.5-.2-.8-.4-.3-.1-.5-.3-.7-.5-.2-.2-.3-.5-.3-.9 0-.5.2-.8.6-1.1.4-.3.8-.4 1.3-.4s1 .1 1.5.4l-.4.5c-.4-.3-.8-.4-1.2-.4-.3 0-.6.1-.8.2s-.3.4-.3.7c0 .2.1.3.2.4s.2.2.4.3c.2.1.3.2.5.3l.6.3c.2.1.4.2.5.3.2.1.3.3.4.5.1.2.2.4.2.7 0 .5-.2 1-.6 1.3-.4.3-.9.4-1.5.4-.3.3-.9.2-1.5-.1zm9 .4h-.8v-5.3h-1.8v-.6h4.3v.6h-1.8v5.3zM22.4 72.4c0 1.7-.5 3-1.4 4.1-1 1.1-2.2 1.6-3.9 1.6s-2.9-.5-3.8-1.6c-.9-1.1-1.4-2.4-1.4-4.1 0-1.7.5-3 1.4-4.1.9-1.1 2.2-1.6 3.8-1.6 1.7 0 3 .5 3.9 1.6 1 1.1 1.4 2.4 1.4 4.1zm-2.2.1c0-.5-.1-1-.2-1.5s-.3-.9-.5-1.4c-.2-.4-.5-.8-1-1s-.9-.4-1.5-.4-1 .1-1.4.4c-.4.2-.7.6-.9 1-.2.4-.4.9-.5 1.3-.1.5-.1 1-.1 1.5s0 1 .1 1.5.3.9.5 1.4c.2.4.5.8 1 1 .4.3.9.4 1.5.4s1-.1 1.4-.4c.4-.2.7-.6.9-1 .2-.4.4-.9.5-1.3.2-.5.2-1 .2-1.5zm12.1 5.4H30L27 73h-1v4.9h-2V67.8s0-.2-.1-.4c-.1-.3-.1-.4-.1-.5h3.8c1.1 0 2 .2 2.7.7.7.5 1 1.2 1 2.3 0 .6-.2 1.2-.7 1.7-.5.5-1 .9-1.6 1l3.3 5.3zm-3.2-8c0-.5-.2-.8-.5-1.1s-.7-.4-1.2-.4H26v3.1h1c1.4 0 2.1-.5 2.1-1.6zm10.7 8h-6.7V67.8l-.2-.9h6.9v1.5h-4.6v3.1h3.5V73h-3.5v3.5h4.6v1.4zm10.9 0h-1.1l-.5-1.1c-.5.5-1 .8-1.5 1-.5.2-1.1.3-1.8.3-1.6 0-2.8-.5-3.6-1.6-.8-1-1.3-2.4-1.3-4 0-1.8.5-3.2 1.5-4.2 1-1.1 2.3-1.6 4-1.6.7 0 1.4.1 2.1.3.7.2 1.3.5 1.7.9l-1.1 1.2c-.5-.4-1-.7-1.3-.8-.4-.1-.8-.2-1.4-.2-.8 0-1.4.2-2 .6-.5.4-.9.9-1.1 1.5-.2.6-.3 1.3-.3 2.1 0 .5.1 1 .2 1.4s.3.9.5 1.4c.2.4.5.8 1 1 .4.3.9.4 1.4.4.7 0 1.3-.2 1.7-.6.4-.4.7-1 .7-1.7v-.9h-2.3l.2-1.3h4.2v2.8c0 1.2 0 2.3.1 3.1zm11.6-5.5c0 1.7-.5 3-1.4 4.1-1 1.1-2.2 1.6-3.9 1.6s-2.9-.5-3.8-1.6c-.9-1.1-1.4-2.4-1.4-4.1 0-1.7.5-3 1.4-4.1.9-1.1 2.2-1.6 3.8-1.6 1.7 0 3 .5 3.9 1.6 1 1.1 1.4 2.4 1.4 4.1zm-2.2.1c0-.5-.1-1-.2-1.5s-.3-.9-.5-1.4c-.2-.4-.5-.8-1-1s-.9-.4-1.5-.4-1 .1-1.4.4c-.4.2-.7.6-.9 1-.2.4-.4.9-.5 1.3-.1.5-.1 1-.1 1.5s0 1 .1 1.5.3.9.5 1.4c.2.4.5.8 1 1 .4.3.9.4 1.5.4s1-.1 1.4-.4c.4-.2.7-.6.9-1 .2-.4.4-.9.5-1.3.2-.5.2-1 .2-1.5zM72.6 78H71l-4.9-7.5c-.3-.5-.6-.9-.6-1 .1.7.1 1 .1 1V78h-1.7V67.8s0-.1-.1-.2c0-.1-.1-.3-.1-.4 0-.2-.1-.2-.1-.3h2.5l4.3 6.6c.1.2.4.6.6 1v-7.6h1.7V78zm8.1-.1h-2.1V67.8s0-.1-.1-.2c0-.1-.1-.3-.1-.4s-.1-.2-.1-.3h2.3v11zm11 .1H90l-4.9-7.5c-.3-.5-.6-.9-.6-1 .1.7.1 1 .1 1V78h-1.7V67.8s0-.1-.1-.2c0-.1-.1-.3-.1-.4 0-.2-.1-.2-.1-.3h2.5l4.3 6.6c.1.2.4.6.6 1v-7.6h1.7V78zm4.3-1.6c0 .6 0 1-.1 1.4s-.1.8-.3 1.2-.3.7-.6 1c-.2.3-.6.5-1 .6-.4.2-.9.3-1.5.3l-.3-1.2c.4 0 .6-.1.9-.3.2-.2.4-.4.5-.7s.2-.5.2-.8V67.6s0-.1-.1-.2c0-.1-.1-.3-.1-.4s-.1-.2-.1-.3H96v9.7zm10.9-2.7c0 1.5-.4 2.6-1.2 3.3-.8.7-1.8 1.1-3.1 1.1-1.4 0-2.5-.4-3.2-1.1-.7-.7-1.1-1.8-1.1-3.2v-5.9l-.3-1h2.4v7.3c0 .7.2 1.3.7 1.8.4.4 1 .7 1.8.7.7 0 1.3-.2 1.8-.6s.7-1 .7-1.8V67h1.7v6.7zm10.4 4.2H115l-3-4.9h-.8v4.9h-2.1V67.8s0-.2-.1-.4c-.1-.3-.1-.4-.1-.5h3.8c1.1 0 2 .2 2.7.7.7.5 1 1.2 1 2.3 0 .6-.2 1.2-.7 1.7-.5.5-1 .9-1.6 1l3.2 5.3zm-3.1-8c0-.5-.2-.8-.5-1.1-.3-.3-.7-.4-1.2-.4h-1.3v3.1h1c1.3 0 2-.5 2-1.6zm11.4-3l-3.3 6v5h-2v-5l-3.2-6h2.2l2.2 4.1 2.3-4.1h1.8zm13.6 11H137l-1.1-3.2h-3.2l-1.1 3.2h-1.7l3.9-11h1.6l3.8 11zm-3.8-4.6c-.5-1.5-.9-2.7-1.1-3.8-.3 1.3-.7 2.5-1.1 3.8h2.2zm11.5-4.9h-3.1v9.5h-2.1v-9.5h-3v-1.5h8.3v1.5zm8.9 0h-3.1v9.5h-2.1v-9.5h-3v-1.5h8.3v1.5zm11.3 4c0 1.7-.5 3-1.4 4.1-1 1.1-2.2 1.6-3.9 1.6-1.6 0-2.9-.5-3.8-1.6-.9-1.1-1.4-2.4-1.4-4.1 0-1.7.5-3 1.4-4.1.9-1.1 2.2-1.6 3.8-1.6 1.7 0 3 .5 3.9 1.6.9 1.1 1.4 2.4 1.4 4.1zm-2.3.1c0-.5 0-1-.1-1.5s-.3-.9-.5-1.4c-.2-.4-.5-.8-1-1-.4-.3-.9-.4-1.5-.4s-1 .1-1.4.4c-.4.2-.7.6-.9 1-.2.4-.4.9-.5 1.3-.1.5-.2 1-.2 1.5s.1 1 .2 1.5.3.9.5 1.4c.2.4.5.8 1 1 .4.3.9.4 1.5.4s1-.1 1.4-.4c.4-.2.7-.6.9-1 .2-.4.4-.9.5-1.3.1-.5.1-1 .1-1.5zm12.1 5.4h-2.3l-3-4.9h-.8v4.9h-2.1V67.8s0-.2-.1-.4c-.1-.3-.1-.4-.1-.5h3.8c1.1 0 2 .2 2.7.7.7.5 1 1.2 1 2.3 0 .6-.2 1.2-.7 1.7-.5.5-1 .9-1.6 1l3.2 5.3zm-3.2-8c0-.5-.2-.8-.5-1.1-.3-.3-.7-.4-1.2-.4h-1.3v3.1h1c1.3 0 2-.5 2-1.6zm12.8 8.1h-1.6l-4.9-7.5c-.3-.5-.6-.9-.6-1 .1.7.1 1 .1 1V78h-1.7V67.8s0-.1-.1-.2c0-.1-.1-.3-.1-.4 0-.2-.1-.2-.1-.3h2.5l4.3 6.6c.2.2.4.6.6 1-.1-.8-.1-1.1-.1-1.2v-6.4h1.7V78zm8.9-.1h-6.7V67.8l-.2-.9h6.9v1.5h-4.6v3.1h3.5V73h-3.5v3.5h4.6v1.4zm9.5-11l-3.3 6v5h-2v-5l-3.2-6h2.2l2.2 4.1 2.3-4.1h1.8zm7.9 7.8c0 1.1-.4 1.9-1.1 2.5-.7.6-1.7.9-2.7.9-1.4 0-2.5-.3-3.5-.9l.7-1.7c.8.7 1.7 1.1 2.6 1.1.5 0 .9-.1 1.3-.4s.5-.7.5-1.2c0-.4-.1-.7-.4-1s-.5-.5-.9-.7-.7-.3-1.2-.6c-.4-.2-.8-.4-1.2-.7-.4-.2-.7-.5-.9-.9s-.4-.9-.4-1.4c0-1 .4-1.8 1.1-2.3.7-.5 1.7-.8 2.9-.8.5 0 1 .1 1.6.3s1 .4 1.4.6l-1 1.3c-.6-.5-1.3-.8-2.1-.8-.4 0-.8.1-1.1.3-.3.2-.5.5-.5.9s.1.7.4.9c.2.3.5.5.9.6s.7.4 1.2.6c.4.2.8.4 1.2.7.4.2.7.5.9 1 .1.6.3 1.1.3 1.7z"/></svg>