<svg xmlns="http://www.w3.org/2000/svg" xmlns:xlink="http://www.w3.org/1999/xlink" viewBox="0 0 546.74 218.29"><defs><style>.a{fill:url(#a);}.b{fill:#fff;}.c{fill:#245e30;}</style><linearGradient id="a" x1="126.63" y1="370.28" x2="673.37" y2="370.28" gradientUnits="userSpaceOnUse"><stop offset="0" stop-color="#111326"/><stop offset="0.24" stop-color="#0e1f3a"/><stop offset="0.71" stop-color="#083c6c"/><stop offset="1" stop-color="#03508e"/></linearGradient></defs><title>logo-color</title><path class="a" d="M667.37,447.82c-3.93-1.23-9.7-2.89-17.07-4.89l-12.23-3.09c-4.45-1.18-9.28-2.25-14.45-3.36l-16.48-3.56-18.29-3.41-32.06-41-18.17,9.07-49-46.66-13.33,9.67-76.23-69.69-38.79,44.77-22.39-15.16-77.66,77.1-.25,0-18.17-9.07L210.67,429.6l-17.81,3.32-16.48,3.56c-5.17,1.11-10,2.18-14.45,3.36l-12.23,3.09c-7.37,2-13.14,3.66-17.07,4.89s-6,1.89-6,1.89l23.48-3.44L177,442.06c2.6-.39,5.26-.91,8-1.22l8.53-1,18.38-2.23c12.81-1.51,26.65-3.54,41.36-4.61l22.6-2c7.72-.62,15.57-1.6,23.61-1.89l24.43-1.36,12.45-.69c4.17-.33,8.37-.44,12.58-.54l25.45-.66L385,425.6q7.46,0,14.91,0h.12q7.45,0,14.91,0l10.61.28,25.45.66c4.21.1,8.41.21,12.58.54l12.45.69,24.43,1.36c8,.29,15.89,1.27,23.61,1.89l22.6,2c14.71,1.07,28.55,3.1,41.36,4.61l18.38,2.23,8.53,1c2.77.31,5.43.83,8,1.22l26.89,4.21,23.48,3.44S671.29,449,667.37,447.82Z" transform="translate(-126.63 -290.86)"/><polygon class="b" points="262.4 64.71 275.7 55.17 290.32 86.99 294.5 65.72 302.29 81.16 308.28 68.03 348.21 74.71 274.12 6.68 262.4 64.71"/><polygon class="b" points="183.92 64.16 197.6 61.27 184.53 79.49 227.03 44.41 212.37 35.15 183.92 64.16"/><polygon class="b" points="362.21 64.55 360.54 73.5 365.64 72.8 382.46 83.08 362.21 64.55"/><path class="c" d="M264.53,508.88h-2.31l-1.88-5.5H255l-1.91,5.5H251.2l5.65-16h2Zm-4.7-7-2.15-6.33-2.19,6.33Z" transform="translate(-126.63 -290.86)"/><path class="c" d="M276.49,508.88h-2.12v-14.5h-4.83v-1.52h11.85v1.52h-4.9Z" transform="translate(-126.63 -290.86)"/><path class="c" d="M295.68,508.88h-2.13v-14.5h-4.83v-1.52h11.86v1.52h-4.9Z" transform="translate(-126.63 -290.86)"/><path class="c" d="M314.6,509.12a7.29,7.29,0,0,1-3.16-.66,5.91,5.91,0,0,1-2.27-1.81,8.08,8.08,0,0,1-1.32-2.62,10.64,10.64,0,0,1-.45-3.14,9.18,9.18,0,0,1,1.87-5.88A7.21,7.21,0,0,1,320,495a9.23,9.23,0,0,1,1.86,5.88,10.37,10.37,0,0,1-.77,4.1,6.77,6.77,0,0,1-2.43,3A6.9,6.9,0,0,1,314.6,509.12Zm5.06-8.22a10.36,10.36,0,0,0-.27-2.39,8.2,8.2,0,0,0-.83-2.13A4.18,4.18,0,0,0,317,494.8a5.06,5.06,0,0,0-4.74,0,4.13,4.13,0,0,0-1.56,1.6,8,8,0,0,0-.82,2.14,11.07,11.07,0,0,0,0,4.77,7.77,7.77,0,0,0,.82,2.13,4.11,4.11,0,0,0,1.56,1.59,5,5,0,0,0,4.75,0,4.09,4.09,0,0,0,1.58-1.59,8.1,8.1,0,0,0,.82-2.13A10.92,10.92,0,0,0,319.66,500.9Z" transform="translate(-126.63 -290.86)"/><path class="c" d="M342.51,508.88H340.1l-4.21-7.24c-.34,0-.9.05-1.68.05H333.1v7.19H331V494.32s0-.14-.08-.36-.11-.45-.16-.69-.08-.38-.08-.41h4.86c3.66,0,5.5,1.48,5.5,4.43a3.82,3.82,0,0,1-.91,2.45,4.51,4.51,0,0,1-2.2,1.53Zm-9.41-8.69h1.79a5.5,5.5,0,0,0,2.93-.67,2.59,2.59,0,0,0,1.07-2.37,2.39,2.39,0,0,0-1-2,3.84,3.84,0,0,0-2.37-.72H333.1Z" transform="translate(-126.63 -290.86)"/><path class="c" d="M362.62,509H361.3l-9.06-13.64v13.53h-1.7V494.32s0-.14-.08-.36l-.15-.69a2.64,2.64,0,0,1-.08-.41H353l7.92,12v-12h1.7Z" transform="translate(-126.63 -290.86)"/><path class="c" d="M382.21,508.88h-9.46V494.32s0-.14-.08-.36-.1-.45-.16-.69a3.51,3.51,0,0,1-.07-.41h9.77v1.52h-7.38v5.52h5.72v1.5h-5.72v6h7.38Z" transform="translate(-126.63 -290.86)"/><path class="c" d="M397.06,508.88h-2.13V501l-4.85-8.1h2.42l3.78,6.23,3.51-6.23h1.94l-4.67,8.1Z" transform="translate(-126.63 -290.86)"/><path class="c" d="M409.4,508l.81-1.79a5.68,5.68,0,0,0,1.79,1,6,6,0,0,0,2,.38,3.87,3.87,0,0,0,2.28-.7,2.38,2.38,0,0,0,1-2.06,2.7,2.7,0,0,0-.77-1.94,5.89,5.89,0,0,0-1.87-1.27c-.73-.31-1.46-.64-2.18-1a5.49,5.49,0,0,1-1.86-1.46,3.89,3.89,0,0,1,.75-5.41,5.93,5.93,0,0,1,3.58-1.11,8.27,8.27,0,0,1,4.21,1.19l-1,1.48a5.48,5.48,0,0,0-3.2-1.1,3.24,3.24,0,0,0-2.06.61,2.19,2.19,0,0,0-.78,1.83,2,2,0,0,0,.41,1.23,3.62,3.62,0,0,0,1.06.91c.44.25.92.49,1.45.73s1.06.49,1.6.78a9.59,9.59,0,0,1,1.45,1,3.93,3.93,0,0,1,1.06,1.36,4.19,4.19,0,0,1,.42,1.91,4,4,0,0,1-1.62,3.43,6.52,6.52,0,0,1-4,1.18A10.07,10.07,0,0,1,409.4,508Z" transform="translate(-126.63 -290.86)"/><path class="c" d="M451.63,508.88h-2.3l-1.88-5.5h-5.37l-1.9,5.5H438.3l5.66-16h2Zm-4.7-7-2.14-6.33-2.2,6.33Z" transform="translate(-126.63 -290.86)"/><path class="c" d="M463.59,508.88h-2.12v-14.5h-4.83v-1.52h11.85v1.52h-4.9Z" transform="translate(-126.63 -290.86)"/><path class="c" d="M497.54,508.88h-8.92V494.32s0-.14-.08-.36-.1-.45-.15-.69a2.64,2.64,0,0,1-.08-.41h2.39v14.5h6.84Z" transform="translate(-126.63 -290.86)"/><path class="c" d="M518.19,508.88h-2.31l-1.88-5.5h-5.36l-1.9,5.5h-1.88l5.66-16h2Zm-4.7-7-2.15-6.33-2.19,6.33Z" transform="translate(-126.63 -290.86)"/><path class="c" d="M538,509H536.3L533,497l-3.31,12h-1.72l-4.52-16.13h2.19L529,505.14l3.35-12.28H534l3.35,12.28,3.38-12.28h1.75Z" transform="translate(-126.63 -290.86)"/><path class="c" d="M176.28,480.79h-4.74l-2.3-6.72h-6.92l-2.4,6.72h-3.71l8.29-23.42H168Zm-8.1-9.85c-1-3.14-1.84-5.81-2.43-8q-1.09,4-2.34,8Z" transform="translate(-126.63 -290.86)"/><path class="c" d="M197.71,481h-3.45l-10.53-16.06c-.72-1.13-1.17-1.85-1.34-2.15.13,1.41.19,2.13.19,2.15v15.9H179V459.35s0-.18-.11-.48-.15-.61-.23-.93-.11-.5-.11-.54h5.25l9.21,14c.32.47.76,1.18,1.32,2.12-.13-1.6-.2-2.42-.2-2.47V457.4h3.55Z" transform="translate(-126.63 -290.86)"/><path class="c" d="M222.1,469.11a11.62,11.62,0,0,1-3.3,8.64,10.79,10.79,0,0,1-8,3h-8.32V459.32s-.08-.34-.24-.95-.25-.94-.27-1h8.86a10.78,10.78,0,0,1,8.28,3.21A12.06,12.06,0,0,1,222.1,469.11Zm-4.74.13a13.05,13.05,0,0,0-.64-4.21,7.05,7.05,0,0,0-2.22-3.21,6,6,0,0,0-3.95-1.32H206.9v17.15h3.71a6.68,6.68,0,0,0,3.1-.69,5.4,5.4,0,0,0,2.12-1.89A9.42,9.42,0,0,0,217,472.4,12.67,12.67,0,0,0,217.36,469.24Z" transform="translate(-126.63 -290.86)"/><path class="c" d="M239.67,480.79H225.43V459.32l-.48-1.95h14.72v3.13h-9.86v6.66h7.55v3.13h-7.55v7.36h9.86Z" transform="translate(-126.63 -290.86)"/><path class="c" d="M261.17,480.79h-5l-6.5-10.43h-1.76v10.43h-4.38V459.32s-.08-.36-.23-.95-.23-.92-.25-1h8a9.91,9.91,0,0,1,5.73,1.5c1.45,1,2.17,2.64,2.17,4.9a5.56,5.56,0,0,1-1.5,3.71,6.64,6.64,0,0,1-3.49,2.21Zm-6.82-17.06a2.8,2.8,0,0,0-1-2.33,4.1,4.1,0,0,0-2.63-.83h-2.75v6.65H250Q254.35,467.22,254.35,463.73Z" transform="translate(-126.63 -290.86)"/><path class="c" d="M276.79,473.91a6.5,6.5,0,0,1-2.39,5.33,9,9,0,0,1-5.84,1.93,14.48,14.48,0,0,1-7.52-1.85l1.51-3.55a8,8,0,0,0,5.6,2.33,4.52,4.52,0,0,0,2.8-.89,3,3,0,0,0,1.16-2.5,3.07,3.07,0,0,0-.76-2,5.66,5.66,0,0,0-1.91-1.41c-.76-.34-1.58-.74-2.48-1.19s-1.72-.93-2.48-1.4a5.63,5.63,0,0,1-1.9-2,6.44,6.44,0,0,1,1.52-8,10,10,0,0,1,6.09-1.7,11.43,11.43,0,0,1,3.33.58,9,9,0,0,1,2.88,1.34l-2.21,2.75a6.39,6.39,0,0,0-4.41-1.59,3.84,3.84,0,0,0-2.32.7,2.31,2.31,0,0,0-1,2,2.84,2.84,0,0,0,.77,2,5.63,5.63,0,0,0,1.9,1.36c.76.34,1.59.75,2.48,1.22s1.73.94,2.48,1.42a5.77,5.77,0,0,1,1.91,2.06A6.27,6.27,0,0,1,276.79,473.91Z" transform="translate(-126.63 -290.86)"/><path class="c" d="M294.39,480.79H280.15V459.32l-.48-1.95h14.72v3.13h-9.86v6.66h7.55v3.13h-7.55v7.36h9.86Z" transform="translate(-126.63 -290.86)"/><path class="c" d="M317,481h-3.46L303,464.89c-.72-1.13-1.17-1.85-1.34-2.15.13,1.41.19,2.13.19,2.15v15.9h-3.55V459.35s0-.18-.11-.48-.15-.61-.23-.93-.11-.5-.11-.54h5.25l9.21,14c.32.47.76,1.18,1.32,2.12-.13-1.6-.2-2.42-.2-2.47V457.4H317Z" transform="translate(-126.63 -290.86)"/><path class="c" d="M352.66,480.76h-4.32V464.89c0-.3.05-1.07.16-2.31a7.45,7.45,0,0,0-.24.72l-.27.85c-.09.26-.18.5-.26.74L342,480.79h-2.37l-5.88-15.9c-.09-.24-.18-.48-.26-.74s-.18-.54-.27-.85l-.24-.72a10.77,10.77,0,0,0,.08,1.09c.05.53.08.94.08,1.22v15.87h-3.49V459.32s0-.18-.11-.48-.15-.61-.23-.93-.11-.5-.11-.54h6.14l5,13.44a32.07,32.07,0,0,1,.92,3.87c.05-.15.16-.69.34-1.62a16.5,16.5,0,0,1,.53-2.12l4.9-13.57h5.63Z" transform="translate(-126.63 -290.86)"/><path class="c" d="M377.87,469.11a12.44,12.44,0,0,1-3,8.66,10.54,10.54,0,0,1-8.25,3.37,10.15,10.15,0,0,1-8.15-3.41,14.28,14.28,0,0,1,0-17.36,10.3,10.3,0,0,1,8.16-3.35q5.34,0,8.3,3.34A12.69,12.69,0,0,1,377.87,469.11Zm-4.73.13a15.91,15.91,0,0,0-.32-3.22,12.16,12.16,0,0,0-1-2.91,5.43,5.43,0,0,0-2-2.22,5.71,5.71,0,0,0-3.12-.83,5.89,5.89,0,0,0-3.07.78,5.32,5.32,0,0,0-2,2.11,10.69,10.69,0,0,0-1,2.82,15.15,15.15,0,0,0-.32,3.15,15.91,15.91,0,0,0,.32,3.22,11.71,11.71,0,0,0,1,2.91,5.5,5.5,0,0,0,2,2.22,5.74,5.74,0,0,0,3.13.83,5.91,5.91,0,0,0,3.07-.78,5.36,5.36,0,0,0,2-2.11,11.21,11.21,0,0,0,1-2.82A15.15,15.15,0,0,0,373.14,469.24Z" transform="translate(-126.63 -290.86)"/><path class="c" d="M398.8,480.79h-5l-6.5-10.43h-1.76v10.43h-4.38V459.32s-.08-.36-.22-.95-.24-.92-.26-1h8a9.91,9.91,0,0,1,5.73,1.5c1.45,1,2.17,2.64,2.17,4.9a5.56,5.56,0,0,1-1.5,3.71,6.64,6.64,0,0,1-3.49,2.21ZM392,463.73a2.8,2.8,0,0,0-1.06-2.33,4.1,4.1,0,0,0-2.63-.83h-2.75v6.65h2.05C390.52,467.22,392,466.06,392,463.73Z" transform="translate(-126.63 -290.86)"/><path class="c" d="M414.42,473.91a6.5,6.5,0,0,1-2.39,5.33,9,9,0,0,1-5.84,1.93,14.48,14.48,0,0,1-7.52-1.85l1.51-3.55a8,8,0,0,0,5.6,2.33,4.52,4.52,0,0,0,2.8-.89,3,3,0,0,0,1.17-2.5,3.08,3.08,0,0,0-.77-2,5.66,5.66,0,0,0-1.91-1.41c-.75-.34-1.58-.74-2.48-1.19s-1.72-.93-2.48-1.4a5.82,5.82,0,0,1-2.67-5,5.8,5.8,0,0,1,2.29-5,10,10,0,0,1,6.09-1.7,11.38,11.38,0,0,1,3.33.58A9,9,0,0,1,414,458.9l-2.21,2.75a6.39,6.39,0,0,0-4.41-1.59,3.84,3.84,0,0,0-2.32.7,2.31,2.31,0,0,0-1,2,2.84,2.84,0,0,0,.77,2,5.57,5.57,0,0,0,1.91,1.36c.75.34,1.58.75,2.47,1.22s1.73.94,2.49,1.42a5.84,5.84,0,0,1,1.9,2.06A6.27,6.27,0,0,1,414.42,473.91Z" transform="translate(-126.63 -290.86)"/><path class="c" d="M432,480.79H417.78V459.32l-.48-1.95H432v3.13h-9.86v6.66h7.55v3.13h-7.55v7.36H432Z" transform="translate(-126.63 -290.86)"/><path class="c" d="M463.44,480.79h-2.37a5.58,5.58,0,0,1-2.72-.61,11.29,11.29,0,0,1-2.46-1.92,8.63,8.63,0,0,1-6.34,2.91,7.17,7.17,0,0,1-4.88-1.71,5.78,5.78,0,0,1-2-4.59c0-2.52,1.39-4.68,4.16-6.5a7.54,7.54,0,0,1-1.72-4.35,5,5,0,0,1,1.64-3.79,5.66,5.66,0,0,1,4-1.52,5.78,5.78,0,0,1,3.69,1.17,4,4,0,0,1,1.49,3.31,4.34,4.34,0,0,1-1,2.83,13.31,13.31,0,0,1-2.7,2.42q.42.45,3.84,4.38a10.06,10.06,0,0,0,1-4.22l2.5.61a12.8,12.8,0,0,1-1.51,5.89l.2.22a8.8,8.8,0,0,0,1.95,1.82,6.25,6.25,0,0,0,2.37.29h.86ZM453.68,476l-4.86-5.31c-1.58,1.13-2.37,2.32-2.37,3.55a2.92,2.92,0,0,0,1,2.37,3.68,3.68,0,0,0,2.51.86A5.63,5.63,0,0,0,453.68,476Zm-1.15-12.7a2.12,2.12,0,0,0-.51-1.47,1.78,1.78,0,0,0-1.41-.58,2,2,0,0,0-1.49.61,1.94,1.94,0,0,0-.62,1.47,4.57,4.57,0,0,0,1.66,3C451.74,465.32,452.53,464.32,452.53,463.32Z" transform="translate(-126.63 -290.86)"/><path class="c" d="M487.7,480.79H474.06V459.32s0-.18-.09-.48-.14-.61-.21-.93a3.8,3.8,0,0,1-.11-.54h4.86v20.28h9.19Z" transform="translate(-126.63 -290.86)"/><path class="c" d="M495.5,480.79h-4.41V459.32s0-.18-.11-.48-.15-.61-.23-.93-.11-.5-.11-.54h4.86Z" transform="translate(-126.63 -290.86)"/><path class="c" d="M518.93,481h-3.46l-10.53-16.06c-.72-1.13-1.17-1.85-1.34-2.15.13,1.41.19,2.13.19,2.15v15.9h-3.55V459.35s0-.18-.11-.48-.15-.61-.23-.93-.11-.5-.11-.54H505l9.21,14c.33.47.76,1.18,1.32,2.12-.13-1.6-.19-2.42-.19-2.47V457.4h3.55Z" transform="translate(-126.63 -290.86)"/><path class="c" d="M539.63,460.5H533v20.29h-4.58V460.5H522v-3.13h17.66Z" transform="translate(-126.63 -290.86)"/><path class="c" d="M561.42,480.79H557v-10.5h-9.83v10.5h-4.41V459.32s0-.18-.12-.48-.15-.61-.22-.93-.11-.5-.11-.54h4.86v9.79H557v-9.79h4.41Z" transform="translate(-126.63 -290.86)"/><path class="c" d="M587,469.11a12.44,12.44,0,0,1-3,8.66,10.54,10.54,0,0,1-8.25,3.37,10.15,10.15,0,0,1-8.15-3.41,12.85,12.85,0,0,1-2.93-8.68,12.67,12.67,0,0,1,3-8.68,10.3,10.3,0,0,1,8.16-3.35q5.34,0,8.3,3.34A12.74,12.74,0,0,1,587,469.11Zm-4.73.13A15.91,15.91,0,0,0,582,466a12.16,12.16,0,0,0-1-2.91,5.5,5.5,0,0,0-2-2.22,5.73,5.73,0,0,0-3.12-.83,5.89,5.89,0,0,0-3.07.78,5.32,5.32,0,0,0-2,2.11,10.69,10.69,0,0,0-1,2.82,14.5,14.5,0,0,0-.32,3.15,15.23,15.23,0,0,0,.32,3.22,11.71,11.71,0,0,0,1,2.91,5.5,5.5,0,0,0,2,2.22,5.73,5.73,0,0,0,3.12.83,5.92,5.92,0,0,0,3.08-.78,5.36,5.36,0,0,0,2-2.11,11.21,11.21,0,0,0,1-2.82A15.15,15.15,0,0,0,582.29,469.24Z" transform="translate(-126.63 -290.86)"/><path class="c" d="M608,480.79h-5l-6.5-10.43H594.7v10.43h-4.38V459.32s-.08-.36-.23-.95-.23-.92-.25-1h8a9.91,9.91,0,0,1,5.73,1.5c1.45,1,2.17,2.64,2.17,4.9a5.56,5.56,0,0,1-1.5,3.71,6.68,6.68,0,0,1-3.49,2.21Zm-6.82-17.06a2.8,2.8,0,0,0-1-2.33,4.1,4.1,0,0,0-2.63-.83H594.7v6.65h2Q601.13,467.22,601.13,463.73Z" transform="translate(-126.63 -290.86)"/><path class="c" d="M623.57,473.91a6.5,6.5,0,0,1-2.39,5.33,9,9,0,0,1-5.84,1.93,14.48,14.48,0,0,1-7.52-1.85l1.51-3.55a8,8,0,0,0,5.6,2.33,4.52,4.52,0,0,0,2.8-.89,3,3,0,0,0,1.16-2.5,3.07,3.07,0,0,0-.76-2,5.66,5.66,0,0,0-1.91-1.41c-.76-.34-1.58-.74-2.48-1.19s-1.72-.93-2.48-1.4a5.63,5.63,0,0,1-1.9-2,6.44,6.44,0,0,1,1.52-8A10,10,0,0,1,617,457a11.43,11.43,0,0,1,3.33.58,9,9,0,0,1,2.88,1.34L621,461.65a6.39,6.39,0,0,0-4.41-1.59,3.84,3.84,0,0,0-2.32.7,2.31,2.31,0,0,0-1,2,2.84,2.84,0,0,0,.77,2,5.63,5.63,0,0,0,1.9,1.36c.76.34,1.59.75,2.48,1.22s1.73.94,2.48,1.42a5.77,5.77,0,0,1,1.91,2.06A6.27,6.27,0,0,1,623.57,473.91Z" transform="translate(-126.63 -290.86)"/><path class="c" d="M642.86,460.5h-6.59v20.29h-4.58V460.5H625.2v-3.13h17.66Z" transform="translate(-126.63 -290.86)"/></svg>