<svg id="Layer_1" xmlns="http://www.w3.org/2000/svg" viewBox="0 0 18 32"><style>.st0{fill:url(#SVGID_1_)}</style><title>map-marker</title><linearGradient id="SVGID_1_" gradientUnits="userSpaceOnUse" y1="16" x2="18.286" y2="16"><stop offset=".002" stop-color="#111326"/><stop offset=".236" stop-color="#0e1f3a"/><stop offset=".71" stop-color="#083c6c"/><stop offset="1" stop-color="#03508e"/></linearGradient><path class="st0" d="M13.7 11.4c0-2.5-2.1-4.6-4.6-4.6s-4.6 2.1-4.6 4.6S6.6 16 9.1 16s4.6-2.1 4.6-4.6zm4.6 0c0 1.1-.1 2.2-.6 3.2l-6.5 13.8c-.4.8-1.2 1.3-2.1 1.3s-1.7-.5-2-1.3L.6 14.6c-.5-1-.6-2.1-.6-3.2 0-5.1 4.1-9.1 9.1-9.1s9.2 4.1 9.2 9.1z"/></svg>