<svg id="Layer_1" data-name="Layer 1" xmlns="http://www.w3.org/2000/svg" viewBox="0 0 15.64 11.95"><defs><style>.cls-1{fill:#163258}</style></defs><title>rdquo</title><path class="cls-1" d="M.64 11.26a8.83 8.83 0 0 0 1.64-2.09 6.32 6.32 0 0 0 .91-2.92 3.66 3.66 0 0 1-2.28-.92A2.66 2.66 0 0 1 0 3.24 3.17 3.17 0 0 1 .89.89 3 3 0 0 1 3.06 0a3.29 3.29 0 0 1 2.46 1 4 4 0 0 1 1 3 8.85 8.85 0 0 1-1.28 4.6A9.75 9.75 0 0 1 2 12zm9.12 0a8.83 8.83 0 0 0 1.64-2.09 6.32 6.32 0 0 0 .91-2.92A3.66 3.66 0 0 1 10 5.33a2.66 2.66 0 0 1-.91-2.09A3.17 3.17 0 0 1 10 .89 3 3 0 0 1 12.18 0a3.29 3.29 0 0 1 2.46 1 4 4 0 0 1 1 2.94 8.76 8.76 0 0 1-1.28 4.66 9.75 9.75 0 0 1-3.28 3.4z"/></svg>